<!DOCTYPE svg PUBLIC "-//W3C//DTD SVG 1.1//EN" "http://www.w3.org/Graphics/SVG/1.1/DTD/svg11.dtd">
<!-- Uploaded to: SVG Repo, www.svgrepo.com, Transformed by: SVG Repo Mixer Tools -->
<svg width="800px" height="800px" viewBox="0 0 24 24" id="share-alt-2" xmlns="http://www.w3.org/2000/svg" class="icon multi-color" fill="#ffffff">
<g id="SVGRepo_bgCarrier" stroke-width="0"/>
<g id="SVGRepo_tracerCarrier" stroke-linecap="round" stroke-linejoin="round"/>
<g id="SVGRepo_iconCarrier">
<path id="secondary-stroke" d="M15.3,16.65,8.68,13.34m0-2.68L15.3,7.35" style="fill: none; stroke: #be9e44; stroke-linecap: round; stroke-linejoin: round; stroke-width: 2;"/>
<path id="tertiary-fill" d="M6,9a3,3,0,1,1-3,3A3,3,0,0,1,6,9Zm9,9a3,3,0,1,0,3-3A3,3,0,0,0,15,18Zm3-9a3,3,0,1,0-3-3A3,3,0,0,0,18,9Z" style="fill: #7a7a7a; stroke-width: 2;"/>
<path id="primary-stroke" d="M6,9a3,3,0,1,1-3,3A3,3,0,0,1,6,9Zm9,9a3,3,0,1,0,3-3A3,3,0,0,0,15,18Zm3-9a3,3,0,1,0-3-3A3,3,0,0,0,18,9Z" style="fill: none; stroke: #ffffff; stroke-linecap: round; stroke-linejoin: round; stroke-width: 2;"/>
</g>
</svg>